<?xml version="1.0" standalone="no"?>
<!DOCTYPE svg PUBLIC "-//W3C//DTD SVG 20010904//EN"
 "http://www.w3.org/TR/2001/REC-SVG-20010904/DTD/svg10.dtd">
<svg version="1.0" xmlns="http://www.w3.org/2000/svg"
 width="3000.000000pt" height="2000.000000pt" viewBox="0 0 3000.000000 2000.000000"
 preserveAspectRatio="xMidYMid meet">

<g transform="translate(0.000000,2000.000000) scale(0.100000,-0.100000)"
fill="#fff" stroke="none">
<path d="M650 19982 c0 -4 4 -12 9 -17 14 -16 289 -538 346 -660 179 -378 297
-711 344 -970 32 -181 53 -316 49 -320 -8 -8 -302 121 -503 220 -268 132 -470
248 -765 440 -52 33 -101 65 -107 69 -9 5 -13 0 -13 -16 0 -19 27 -40 143
-115 393 -253 746 -441 1102 -588 77 -31 143 -60 147 -64 4 -3 14 -74 23 -156
27 -266 37 -298 209 -644 139 -281 251 -556 360 -884 114 -342 157 -507 158
-597 2 -160 -29 -205 -218 -319 -131 -78 -144 -84 -229 -97 -217 -33 -290 -73
-475 -262 -230 -236 -396 -354 -610 -435 -143 -54 -209 -68 -400 -82 -96 -7
-183 -16 -192 -20 -10 -4 -18 -16 -18 -27 0 -15 4 -18 18 -13 9 4 98 13 197
20 327 25 534 104 778 296 110 87 98 61 -28 -59 -143 -137 -251 -212 -370
-258 -27 -10 -43 -20 -37 -22 16 -5 170 69 238 115 33 23 101 80 152 128 51
48 95 85 97 83 11 -11 -85 -140 -209 -278 -66 -74 -55 -71 20 5 44 45 97 104
118 133 22 28 41 50 43 49 5 -6 -56 -189 -71 -212 -39 -59 -180 -125 -267
-125 -22 0 -92 9 -155 21 -68 12 -129 17 -147 13 -18 -3 -73 -27 -124 -51 -84
-41 -98 -45 -172 -47 -80 -1 -81 -1 -81 -28 0 -37 39 -49 185 -58 99 -6 131
-12 185 -35 78 -33 199 -44 281 -25 77 18 164 64 220 117 27 25 51 44 54 42 2
-3 -3 -67 -11 -144 -19 -176 -14 -529 10 -654 38 -202 86 -324 166 -421 48
-56 131 -110 172 -110 10 0 34 -24 57 -58 73 -108 168 -172 302 -206 110 -27
202 -18 328 32 60 24 68 25 124 13 32 -7 111 -16 175 -22 l115 -9 53 -51 c154
-145 368 -158 608 -38 185 93 294 216 360 404 l24 68 193 1 c172 1 199 3 234
21 52 25 123 98 158 162 59 109 82 286 57 426 l-11 56 46 45 c25 25 45 50 45
56 0 5 22 -6 48 -25 135 -96 242 -55 211 82 -20 93 -46 136 -357 586 -106 153
-192 281 -192 286 0 5 13 14 28 20 39 16 108 88 126 132 20 48 30 55 111 68
90 16 149 42 171 77 86 131 -153 354 -481 449 -155 45 -263 58 -475 59 -219 0
-327 -11 -545 -56 -196 -41 -336 -45 -407 -10 -92 45 -147 130 -192 297 -158
576 -303 968 -527 1425 -145 298 -168 369 -192 595 -8 72 -13 132 -11 134 2 2
36 -9 76 -24 465 -175 1190 -371 1698 -460 389 -68 993 -135 1220 -135 57 0
591 -685 920 -1180 174 -262 208 -335 217 -466 7 -94 -13 -175 -53 -223 -14
-17 -61 -55 -103 -86 -98 -68 -183 -159 -222 -236 -68 -137 -104 -365 -80
-519 15 -94 78 -318 176 -620 42 -129 94 -302 116 -385 83 -309 171 -560 256
-728 51 -102 159 -209 233 -231 70 -21 135 -20 185 3 l40 18 55 -27 c30 -15
91 -35 135 -45 71 -15 86 -23 130 -64 67 -63 138 -86 245 -78 84 5 127 23 176
69 l32 30 54 -44 c119 -97 230 -113 341 -49 125 71 197 207 197 371 l0 63 33
-7 c17 -4 69 -12 115 -17 280 -35 543 134 582 376 15 95 -3 166 -69 269 -17
28 -31 53 -31 57 0 4 18 0 39 -8 55 -22 122 -10 166 28 36 32 69 114 81 203
l7 48 37 -6 c68 -11 101 3 165 68 83 84 100 134 92 267 -5 85 -3 105 14 143
49 111 46 218 -7 297 l-32 48 20 53 c16 41 19 68 15 123 -4 66 -12 84 -122
300 -120 236 -155 286 -230 330 -22 13 -132 60 -245 105 -113 46 -371 150
-574 232 -356 144 -604 227 -770 257 -233 42 -544 -41 -793 -211 -132 -91
-202 -104 -294 -58 -60 31 -125 113 -310 391 -236 352 -647 897 -841 1115
l-19 22 243 -5 c606 -13 1391 43 2023 143 359 56 426 65 561 71 232 10 288
-12 454 -173 286 -278 443 -358 800 -404 142 -18 461 -24 680 -11 334 20 481
43 747 119 76 22 182 47 235 56 53 9 121 24 150 32 125 37 243 126 304 229 25
44 29 60 30 132 l1 82 52 56 c64 67 84 112 85 190 1 72 -24 144 -69 200 l-33
40 29 35 c45 53 61 114 57 222 -3 89 -1 97 23 129 87 114 96 201 33 319 -47
90 -149 196 -219 229 -67 31 -142 37 -246 17 -113 -21 -117 -21 -91 7 105 112
-22 268 -232 284 -136 10 -341 -41 -668 -168 -541 -209 -637 -246 -788 -300
-331 -120 -484 -191 -662 -309 -267 -177 -391 -362 -443 -661 -18 -105 -27
-131 -61 -180 -49 -72 -137 -104 -419 -153 -626 -108 -1105 -161 -1700 -186
-263 -11 -711 -13 -832 -4 l-82 7 -107 121 c-411 464 -921 968 -1374 1357
-413 354 -915 725 -1335 986 -225 140 -270 163 -311 163 -37 0 -34 -3 75 -66
760 -440 1573 -1082 2321 -1834 311 -312 680 -713 667 -726 -2 -3 -81 0 -173
6 -824 53 -1727 240 -2524 520 -96 34 -200 70 -231 81 l-56 20 -7 67 c-11 110
-54 350 -82 457 -67 262 -191 567 -384 950 -223 442 -270 525 -297 525 -13 0
-23 -4 -23 -8z m9608 -732 c29 -12 51 -24 49 -26 -1 -2 -59 -15 -127 -29 -391
-82 -755 -187 -1125 -325 -604 -225 -1055 -471 -1287 -702 -49 -48 -88 -85
-88 -82 0 3 19 43 42 87 33 64 64 104 138 177 164 165 380 288 725 415 231 85
420 157 775 295 446 173 619 222 765 217 56 -3 96 -11 133 -27z m91 -67 c33
-41 36 -68 11 -108 -49 -79 -139 -121 -435 -199 -777 -204 -1370 -429 -1857
-702 -161 -90 -340 -214 -392 -273 -27 -30 -36 -26 -36 17 0 108 152 277 391
435 165 108 271 169 449 254 454 219 1015 413 1550 537 85 20 182 43 215 50
82 19 81 19 104 -11z m351 -206 c43 -20 150 -118 150 -137 0 -5 -26 -14 -57
-20 -86 -17 -161 -39 -210 -62 -57 -27 -49 -34 8 -10 25 11 83 29 129 40 156
37 145 37 170 -2 12 -20 19 -40 16 -45 -3 -5 -27 -12 -52 -16 -26 -3 -56 -11
-68 -16 -17 -8 -16 -9 10 -5 17 3 54 8 82 12 l50 6 7 -41 c11 -68 -10 -132
-66 -201 -27 -32 -29 -41 -29 -117 l0 -82 -37 -7 c-21 -3 -54 -10 -73 -14 -34
-8 -34 -8 -5 -9 17 0 49 4 73 8 40 8 42 7 42 -16 0 -35 -24 -85 -54 -113 -27
-25 -27 -25 -59 -6 -77 45 -151 77 -233 101 -97 28 -288 65 -343 66 -93 2 -70
16 79 49 84 19 149 35 143 37 -5 2 -75 -10 -154 -27 -79 -17 -166 -35 -194
-40 -58 -11 -309 -18 -292 -8 38 20 433 133 712 203 99 25 160 42 135 39 -117
-16 -758 -186 -885 -234 -39 -15 -35 -12 70 57 110 72 204 163 246 238 35 62
48 70 167 110 46 15 81 29 78 32 -4 5 -137 -33 -190 -53 -12 -5 -12 2 -4 38 5
24 7 64 4 90 l-5 47 56 16 c30 9 80 28 112 41 31 14 117 39 191 55 150 32 204
31 280 -4z m-670 -167 c0 -48 -4 -72 -12 -74 -7 -2 -62 -11 -123 -21 -454 -69
-1061 -232 -1469 -394 -140 -56 -91 -26 91 57 298 134 468 197 908 336 328
103 541 164 578 165 27 1 27 1 27 -69z m-10 -95 c0 -12 -50 -104 -60 -110 -5
-3 -87 -19 -182 -36 -196 -33 -330 -61 -324 -66 3 -3 291 42 425 67 30 5 57 8
59 5 6 -6 -46 -63 -69 -75 -9 -5 -72 -18 -140 -30 -261 -45 -682 -140 -749
-170 l-25 -11 25 6 c14 3 99 23 190 45 146 34 499 106 619 125 55 9 49 -2 -27
-54 -137 -92 -249 -132 -632 -222 -364 -85 -571 -144 -900 -253 -256 -86 -387
-120 -438 -114 -24 3 -20 7 43 42 194 110 441 220 645 287 146 49 125 51 -28
3 -205 -64 -400 -150 -630 -277 -94 -52 -98 -54 -129 -43 -35 11 -28 29 30 78
340 289 1102 577 2002 758 230 46 295 56 295 45z m197 -470 c109 -15 273 -52
286 -65 4 -4 -45 -10 -110 -13 -86 -4 -192 -21 -390 -62 -420 -86 -419 -86
-883 -95 -387 -8 -519 -17 -629 -41 -24 -5 -45 -8 -48 -6 -8 9 442 130 697
188 278 63 450 94 603 109 116 11 341 4 474 -15z m389 -113 c26 -14 -248 -102
-489 -157 -129 -30 -168 -50 -54 -28 159 30 316 74 500 140 l97 35 40 -26 c94
-62 145 -139 157 -235 7 -57 -7 -105 -47 -160 -54 -75 -82 -85 -355 -140 -674
-135 -1130 -190 -1655 -198 -425 -7 -663 17 -860 85 -106 37 -199 93 -220 132
-9 16 2 13 62 -15 147 -70 289 -94 593 -102 496 -12 1145 87 1845 283 166 46
412 125 407 131 -3 2 -71 -16 -153 -41 -438 -132 -865 -232 -1244 -290 -311
-48 -429 -58 -715 -63 -310 -6 -439 6 -601 52 -150 44 -224 92 -224 146 0 31
0 31 43 23 69 -11 329 -6 521 11 230 20 622 72 613 81 -2 3 -112 -9 -243 -25
-378 -47 -593 -64 -750 -59 -77 3 -149 10 -159 15 -17 10 -17 12 7 27 13 9 64
23 114 31 49 9 179 38 289 65 227 56 351 84 445 100 36 7 252 15 490 20 465 9
546 16 830 76 318 67 409 85 472 94 73 10 220 5 244 -8z m113 -628 c1 -53 -32
-136 -67 -166 -32 -29 -459 -129 -752 -177 -336 -55 -450 -65 -770 -66 -389 0
-602 27 -860 111 -197 64 -465 216 -521 296 -26 36 -18 35 38 -3 80 -56 251
-105 473 -136 176 -24 707 -24 980 0 404 37 804 97 1255 190 239 50 222 53
224 -49z m-2805 -152 c203 -131 497 -223 841 -264 139 -16 548 -16 720 0 308
30 606 82 949 168 98 25 181 43 183 40 9 -9 -92 -76 -145 -96 -28 -11 -91 -27
-140 -36 -118 -23 -252 -55 -402 -97 -246 -69 -627 -104 -1020 -94 -489 12
-701 82 -961 313 -67 60 -136 136 -109 119 8 -5 46 -29 84 -53z m-1104 -1338
c127 -24 299 -77 480 -148 525 -205 1040 -420 1090 -454 47 -32 61 -50 104
-131 l49 -95 -59 34 c-224 127 -339 186 -499 253 -60 26 -281 119 -490 207
-209 89 -432 179 -497 200 -181 61 -349 92 -505 94 -72 0 -129 4 -127 7 2 3
38 14 81 23 43 10 83 19 88 21 29 10 214 3 285 -11z m-77 -83 c186 -38 335
-91 732 -261 126 -54 293 -124 370 -155 162 -66 453 -207 605 -294 l105 -59
56 -104 c63 -115 93 -188 87 -212 -2 -13 -18 -7 -78 32 -203 129 -526 309
-795 442 -676 333 -1272 530 -1613 533 -119 1 -122 2 -100 19 33 25 140 67
201 78 78 14 317 3 430 -19z m-378 -106 c496 -65 1404 -447 2175 -916 143 -87
155 -96 158 -126 3 -34 -31 -113 -49 -113 -6 0 -65 35 -132 79 -203 131 -397
242 -397 227 0 -2 37 -25 83 -51 129 -74 427 -267 427 -276 0 -12 -52 -45 -94
-59 -66 -21 -106 -8 -254 83 -949 587 -1922 1027 -2269 1027 -47 0 -83 4 -83
10 0 16 62 80 94 97 67 35 167 41 341 18z m-249 -150 c408 -71 1333 -506 2154
-1013 58 -35 106 -66 108 -67 8 -7 -142 -154 -168 -165 -45 -19 -161 -7 -250
25 -111 40 -203 94 -362 212 -291 216 -347 242 -568 263 -126 11 -311 47 -385
73 -133 48 -286 143 -410 257 -49 45 -136 118 -193 162 -136 106 -180 165
-136 182 91 35 449 -80 850 -274 330 -159 593 -309 992 -563 112 -71 205 -128
207 -126 5 5 -237 167 -380 255 -305 187 -581 340 -793 441 -408 194 -664 283
-820 286 -67 2 -72 4 -70 22 3 22 53 44 104 44 17 1 71 -6 120 -14z m-2696
-170 c121 -20 267 -57 367 -93 118 -44 123 -45 56 -12 -61 29 -284 100 -316
100 -9 0 -18 4 -21 8 -8 14 143 -8 261 -38 180 -46 350 -135 440 -233 48 -52
73 -96 73 -129 -1 -53 -14 -51 -101 14 -113 84 -213 139 -360 199 -253 103
-402 134 -709 150 -112 5 -206 11 -208 13 -2 2 34 9 80 15 46 6 94 12 108 14
64 10 244 5 330 -8z m-168 -60 c217 -13 468 -84 683 -192 98 -49 315 -189 315
-203 0 -10 -81 -34 -168 -50 l-63 -11 -57 49 c-65 56 -207 153 -302 205 -89
49 -312 139 -439 176 -107 32 -137 45 -85 37 16 -3 68 -8 116 -11z m2763 -135
c130 -150 343 -368 440 -453 39 -33 -11 22 -111 124 -99 101 -227 238 -284
304 -147 170 -136 155 -118 155 23 0 139 -92 297 -234 248 -225 267 -242 686
-597 226 -191 445 -377 489 -414 131 -112 81 -57 -69 76 -180 160 -366 319
-582 498 -95 79 -173 144 -173 147 0 2 53 -32 118 -75 132 -89 273 -164 510
-271 253 -114 505 -273 817 -516 172 -134 169 -120 -4 20 -126 102 -312 237
-404 293 -32 19 -56 37 -54 39 2 3 49 -11 103 -31 55 -20 154 -52 222 -71 194
-54 305 -116 404 -223 70 -75 93 -136 91 -241 -3 -156 -63 -250 -158 -250 -54
0 -152 59 -333 199 -73 57 -135 101 -138 98 -3 -3 59 -56 138 -117 79 -62 146
-121 150 -131 4 -10 34 -60 66 -112 67 -105 92 -167 92 -232 0 -45 -33 -150
-51 -160 -5 -4 -73 49 -152 117 -78 67 -205 177 -281 243 -369 317 -790 709
-1174 1089 -337 334 -485 503 -645 738 -65 96 -73 123 -39 130 20 4 10 14 147
-142z m-3192 104 c264 -68 552 -373 782 -829 90 -177 129 -273 209 -510 30
-88 55 -155 55 -150 1 6 -17 70 -39 144 -135 445 -372 873 -622 1118 -107 106
-164 148 -268 200 -89 45 -89 53 1 27 339 -101 756 -599 1115 -1332 l95 -193
-31 -44 c-35 -51 -48 -62 -54 -43 -21 68 -94 263 -113 303 -28 60 -27 56 48
-158 33 -93 59 -170 59 -172 0 -2 -20 -11 -45 -21 -59 -22 -125 -14 -203 25
-68 34 -108 76 -117 123 -15 79 -48 208 -52 204 -2 -2 5 -50 17 -106 12 -55
20 -103 17 -106 -2 -3 -26 5 -51 18 -47 22 -47 23 -40 63 12 73 7 278 -11 370
-59 320 -175 552 -359 721 -128 118 -336 246 -494 304 -72 26 -82 36 -50 49
35 14 83 13 151 -5z m2839 -41 c-50 -109 -42 -308 20 -518 128 -430 492 -1002
939 -1475 71 -76 25 -19 -112 138 -231 263 -471 608 -621 892 -182 344 -277
691 -238 870 11 50 50 140 60 140 4 0 7 -39 8 -87 1 -133 41 -283 130 -480 94
-210 262 -481 424 -684 43 -56 100 -133 125 -172 26 -40 86 -133 135 -209 195
-302 291 -568 274 -764 -3 -39 -8 -79 -12 -88 -6 -16 -9 -15 -28 6 -56 60
-237 283 -304 373 -74 100 -103 135 -87 105 33 -61 202 -283 318 -418 100
-115 99 -111 42 -208 -26 -44 -119 -134 -139 -134 -22 0 -285 369 -438 615
-541 868 -834 1756 -675 2040 18 31 38 47 97 77 108 53 115 51 82 -19z m-2354
2 c75 -25 191 -72 257 -104 125 -61 370 -219 417 -268 l27 -28 -33 -60 c-33
-60 -91 -112 -132 -117 -16 -2 -44 28 -127 137 -59 77 -124 160 -144 184 -21
25 -31 41 -23 36 29 -17 165 -119 220 -164 30 -25 48 -37 40 -27 -27 35 -185
161 -276 221 -49 32 -111 77 -139 98 -27 22 -95 62 -149 88 -55 27 -94 49 -87
49 6 0 74 -20 149 -45z m2471 32 c6 -8 35 -61 64 -118 29 -57 88 -158 131
-223 201 -306 271 -478 297 -729 7 -62 18 -127 25 -146 25 -61 15 -55 -49 30
-301 400 -517 867 -517 1118 0 76 19 103 49 68z m-3554 -412 c40 -237 139
-642 270 -1095 260 -901 322 -1110 324 -1088 1 12 -113 418 -209 744 -264 894
-399 1488 -388 1699 l3 60 23 -95 c32 -134 194 -682 256 -869 77 -227 209
-591 213 -587 3 2 -15 57 -38 123 -180 506 -385 1192 -444 1482 -7 32 -6 33
16 28 82 -21 228 -132 332 -252 324 -374 573 -1030 648 -1705 16 -140 16 -496
2 -603 -8 -59 -17 -85 -34 -103 -25 -27 -128 -98 -134 -92 -1 1 -30 95 -64
207 -33 112 -64 207 -67 210 -4 3 -4 -3 -1 -14 3 -11 13 -49 22 -85 16 -64 82
-291 92 -317 3 -8 -17 -23 -58 -43 -155 -72 -305 -80 -422 -22 -105 52 -134
92 -215 298 -243 618 -383 1194 -411 1691 -25 434 56 743 213 814 l41 18 6
-152 c4 -84 15 -197 24 -252z m336 355 c345 -174 655 -531 815 -940 18 -47 33
-79 34 -72 0 25 -72 198 -121 291 -160 300 -386 543 -649 697 -85 50 -73 56
38 18 172 -57 367 -176 504 -306 184 -175 282 -366 344 -668 23 -111 25 -142
21 -275 -3 -108 -10 -172 -25 -228 -25 -92 -95 -287 -103 -287 -3 0 -14 46
-23 103 -68 388 -229 833 -406 1127 -97 161 -162 245 -284 365 -113 111 -176
156 -283 202 l-58 24 56 -4 c39 -4 81 -18 140 -47z m655 -6 c146 -69 300 -209
447 -407 117 -159 557 -789 622 -893 30 -47 64 -111 75 -142 39 -105 0 -148
-93 -103 -64 31 -101 76 -145 176 -152 347 -377 725 -586 986 -111 138 -272
292 -382 364 -49 32 -93 62 -98 66 -16 14 108 -22 160 -47z m-771 2 c365 -175
708 -732 884 -1431 71 -284 85 -377 85 -565 1 -186 -12 -262 -68 -400 -23 -59
-95 -174 -103 -166 -3 3 0 69 7 147 59 665 -175 1562 -544 2086 -101 142 -235
279 -335 340 -58 36 -7 29 74 -11z m-433 -43 c-172 -202 -263 -456 -293 -824
-30 -350 50 -806 208 -1188 41 -100 134 -287 157 -316 9 -11 -15 43 -53 120
-207 421 -313 888 -298 1310 13 361 108 662 271 860 23 28 23 25 -9 -55 -57
-142 -70 -240 -70 -520 1 -197 5 -276 23 -402 65 -460 199 -949 384 -1398 33
-80 62 -153 65 -163 5 -18 0 -18 -98 -12 -209 13 -291 44 -414 157 -82 76
-107 116 -174 285 -92 232 -161 483 -198 723 -24 155 -24 496 0 625 53 292
165 523 337 696 67 68 182 157 203 158 5 1 -14 -25 -41 -56z m3934 -70 c44
-60 124 -162 179 -228 186 -224 833 -854 1345 -1311 231 -205 244 -217 463
-402 114 -96 207 -181 207 -188 0 -13 -100 -108 -131 -125 -16 -8 -44 13 -191
148 -253 230 -315 290 -614 588 -306 306 -494 506 -699 745 -305 357 -438 536
-624 843 -41 68 -14 38 65 -70z m-489 73 c-64 -167 -34 -444 88 -811 175 -523
525 -1169 922 -1698 56 -76 103 -142 103 -146 0 -12 -80 -31 -128 -31 -53 0
-185 36 -241 66 -25 13 -56 24 -68 24 -23 0 -57 46 -192 268 -35 56 -65 102
-68 102 -8 0 65 -128 149 -260 73 -114 78 -125 62 -137 -10 -7 -29 -13 -43
-13 -23 0 -37 18 -108 138 -76 127 -166 305 -253 504 -19 42 -36 75 -38 74
-15 -16 178 -426 282 -600 37 -60 64 -111 62 -114 -9 -8 -82 22 -124 51 -64
46 -118 124 -176 254 -80 179 -131 326 -197 568 -34 121 -95 326 -136 455 -95
296 -158 519 -174 616 -30 186 27 455 120 564 l30 35 -21 -65 c-101 -323 81
-980 468 -1683 117 -213 344 -579 344 -555 0 4 -38 67 -83 140 -333 531 -575
1056 -682 1480 -72 283 -73 544 -4 681 32 62 125 144 106 93z m-3609 -78
c-345 -338 -458 -905 -312 -1568 31 -137 108 -380 164 -510 22 -51 38 -95 36
-98 -2 -2 -21 23 -42 55 -118 183 -244 558 -304 903 -31 177 -38 417 -15 550
46 277 156 468 359 623 71 54 182 127 194 127 3 0 -33 -37 -80 -82z m-233 -37
c-6 -4 -33 -24 -62 -43 -249 -165 -430 -487 -505 -898 -16 -88 -22 -172 -25
-355 -6 -262 6 -406 52 -644 14 -69 23 -126 21 -128 -8 -8 -67 139 -85 212
-85 339 -62 887 50 1235 61 187 164 367 270 472 70 69 118 102 196 134 58 23
106 32 88 15z m-32 -95 c-192 -206 -273 -462 -260 -821 9 -223 58 -477 151
-773 20 -62 52 -179 71 -260 42 -175 97 -374 102 -368 2 2 -17 86 -42 186 -25
101 -44 185 -42 186 2 2 19 -27 40 -64 90 -166 205 -309 314 -392 l66 -50 -38
-15 c-95 -40 -159 -50 -247 -37 -164 23 -300 121 -348 249 -52 140 -119 476
-141 705 -19 206 -7 570 24 749 46 258 137 489 250 628 46 57 148 151 163 151
3 0 -25 -33 -63 -74z m-91 -33 c-150 -181 -243 -426 -294 -778 -20 -138 -17
-566 6 -740 21 -170 47 -303 87 -454 16 -62 29 -119 27 -126 -5 -22 -91 11
-141 55 -51 45 -57 60 -86 210 -73 376 -79 750 -16 1060 67 325 183 561 363
738 47 45 87 82 89 82 3 0 -13 -21 -35 -47z m5266 -139 c47 -13 158 -38 246
-54 282 -52 387 -96 573 -233 59 -44 131 -95 159 -113 82 -53 216 -103 305
-116 114 -16 73 -30 -91 -31 -107 -1 -139 3 -221 26 -117 33 -210 67 -289 107
-33 17 -121 57 -197 91 -192 85 -354 166 -452 228 -84 53 -231 158 -231 166 0
2 25 -7 56 -21 31 -14 95 -36 142 -50z m-484 -218 c409 -507 983 -1102 1555
-1611 132 -119 142 -129 125 -142 -25 -18 -100 -40 -165 -48 l-54 -7 -259 259
c-143 142 -231 224 -195 183 35 -41 141 -152 234 -247 94 -96 171 -177 173
-183 7 -20 -153 16 -256 57 -37 14 -83 36 -103 49 -19 12 -159 165 -309 341
-321 374 -393 451 -244 263 96 -121 241 -296 356 -429 60 -68 108 -127 108
-131 0 -4 -33 -8 -73 -9 -54 -1 -89 4 -130 19 -96 36 -124 75 -262 355 -88
179 -155 298 -235 420 -189 288 -230 379 -230 508 l0 60 78 -111 c133 -190
425 -542 439 -528 3 3 -19 31 -50 63 -67 70 -249 295 -333 413 -108 150 -144
212 -165 284 -26 92 -54 165 -96 248 -36 73 -42 98 -15 59 9 -13 57 -74 106
-135z m2425 -112 c46 -59 51 -160 12 -249 l-19 -44 -84 49 c-113 68 -124 63
-15 -6 71 -45 87 -60 87 -80 0 -14 -3 -23 -7 -21 -65 39 -247 137 -264 142
-13 4 25 -21 85 -54 178 -101 192 -112 199 -166 14 -96 -30 -199 -110 -260
-46 -35 -66 -40 -121 -29 -26 5 -32 12 -37 45 -22 129 -137 253 -317 343 -62
31 -118 56 -125 56 -7 0 -13 5 -13 10 0 6 21 10 46 10 38 0 67 -11 148 -54 56
-30 139 -80 186 -110 48 -31 70 -42 50 -25 -41 35 -181 124 -260 164 l-55 28
45 12 c76 20 127 52 199 127 l69 71 70 -2 c73 -2 122 12 169 49 33 26 37 25
62 -6z m-7769 -289 c-44 -64 -149 -139 -232 -166 -97 -31 -214 -24 -321 19
-68 28 -90 32 -175 33 l-97 1 60 13 c33 7 98 31 144 54 95 46 114 48 232 25
165 -32 282 -17 379 50 19 13 37 22 38 21 2 -2 -10 -25 -28 -50z m2763 -494
c47 -37 99 -74 115 -80 23 -10 33 -23 45 -64 l16 -52 -5 45 -6 45 81 0 81 0 7
-35 c16 -71 7 -165 -21 -227 -34 -74 -59 -100 -121 -129 -46 -22 -58 -24 -156
-18 -72 5 -128 2 -172 -6 -99 -20 -100 -19 -95 155 3 104 9 151 22 182 10 24
22 41 26 38 4 -3 11 -33 15 -67 5 -35 10 -58 12 -52 2 7 0 46 -6 89 -9 76 2
157 29 204 13 23 34 -31 80 -213 41 -158 54 -170 20 -18 -16 75 -52 196 -75
255 -14 34 23 17 108 -52z m298 -517 c-44 -94 -91 -148 -156 -180 -53 -25 -60
-26 -154 -20 -63 5 -113 3 -140 -4 -32 -8 -47 -8 -69 2 -29 15 -30 24 -17 114
5 37 8 40 33 37 15 -3 55 2 90 11 52 12 79 13 151 3 116 -14 164 -1 235 64 28
26 53 45 55 44 2 -2 -11 -34 -28 -71z m2929 -241 c74 -109 165 -223 245 -308
l67 -70 -57 70 c-132 163 -244 315 -232 315 2 0 37 -11 78 -25 57 -20 91 -25
150 -24 74 2 81 0 187 -52 78 -38 112 -60 116 -75 10 -37 -13 -174 -38 -229
-67 -146 -207 -223 -332 -181 -70 23 -134 83 -216 202 -82 119 -107 133 -30
17 l51 -77 -29 -35 c-58 -75 -95 -91 -205 -91 -56 0 -82 5 -122 25 -63 32 -83
53 -62 66 8 5 23 9 35 9 38 0 145 63 186 110 22 25 53 71 69 103 16 31 34 57
39 57 5 0 7 6 5 13 -2 6 2 39 9 72 l12 60 49 -75 c65 -102 126 -183 132 -177
2 3 -36 65 -85 139 -78 118 -90 140 -96 192 -9 77 4 72 74 -31z"/>
<path d="M9412 17774 c-286 -55 -616 -88 -1033 -104 -156 -6 -320 -15 -364
-19 l-80 -8 63 -2 c102 -2 694 28 877 44 94 9 229 25 300 35 138 21 397 70
404 76 9 8 -49 1 -167 -22z"/>
<path d="M2560 14786 c0 -5 34 -84 75 -176 199 -449 316 -788 402 -1163 21
-92 39 -163 41 -158 6 17 -58 307 -98 448 -40 142 -112 359 -157 473 -64 162
-160 384 -205 475 -51 102 -58 114 -58 101z"/>
<path d="M3406 14295 c11 -48 25 -76 18 -35 -4 19 -10 42 -15 50 -6 10 -7 5
-3 -15z"/>
<path d="M3671 13454 c0 -11 3 -14 6 -6 3 7 2 16 -1 19 -3 4 -6 -2 -5 -13z"/>
<path d="M24583 18101 c-150 -69 -212 -254 -184 -551 25 -261 117 -654 242
-1040 68 -209 315 -886 438 -1200 55 -140 96 -256 91 -258 -23 -8 -126 100
-197 206 -81 123 -115 152 -176 152 -53 0 -44 -22 13 -32 55 -9 69 -23 143
-133 33 -49 82 -114 110 -142 49 -51 58 -75 20 -54 -11 5 -49 17 -86 25 -37 9
-86 25 -108 36 -43 22 -90 23 -97 3 -2 -8 6 -13 23 -13 32 0 227 -56 268 -77
15 -8 27 -22 27 -33 0 -11 22 -41 49 -67 27 -27 66 -73 86 -103 l37 -55 -15
-60 c-8 -33 -12 -62 -10 -65 8 -9 33 33 33 56 0 40 23 47 74 23 45 -21 46 -22
31 -43 -8 -11 -18 -27 -22 -35 -7 -16 9 -84 32 -133 l15 -33 -5 30 c-16 98
-16 120 2 143 l19 23 42 -39 c30 -28 42 -47 42 -67 0 -29 55 -135 70 -135 5 0
-2 27 -17 60 -14 33 -23 63 -20 66 3 4 42 -23 85 -59 43 -35 89 -71 103 -78
13 -8 43 -30 66 -50 94 -80 194 -118 427 -164 72 -15 169 -40 216 -56 216 -76
284 -81 366 -26 l47 31 66 -19 c109 -30 158 -31 226 0 55 24 70 26 185 25 152
-1 189 14 260 102 25 32 70 78 101 102 96 76 168 195 205 336 21 78 23 257 5
345 -32 154 -130 389 -211 505 -44 62 -59 110 -60 195 -1 64 -27 122 -85 184
-74 79 -118 93 -325 103 -96 5 -201 12 -234 16 l-59 7 74 65 c259 226 362 400
329 553 -16 76 -49 118 -153 196 -142 107 -204 190 -287 392 -63 155 -85 195
-124 237 -43 46 -77 62 -133 62 -106 0 -214 -86 -445 -352 -65 -76 -121 -138
-123 -138 -2 0 -18 23 -35 51 -86 140 -275 290 -537 425 -167 87 -228 131
-343 250 -200 206 -264 260 -363 304 -56 26 -158 26 -214 1z m1 -142 c38 -18
47 -58 57 -264 5 -104 16 -246 24 -315 46 -386 57 -473 70 -550 7 -47 21 -141
30 -210 25 -190 60 -387 104 -575 22 -93 38 -171 37 -173 -5 -4 -201 543 -239
668 -260 840 -311 1327 -149 1414 33 19 35 19 66 5z m218 -151 l2 -163 3 163
c3 153 5 162 23 162 53 0 124 -103 161 -235 20 -71 23 -103 24 -280 0 -259
-16 -718 -25 -708 -9 10 -91 340 -124 503 -15 69 -33 186 -41 260 l-14 135 4
-320 c5 -331 7 -347 74 -875 28 -220 51 -542 38 -530 -12 12 -77 296 -102 443
-28 174 -127 938 -152 1179 -18 180 -10 292 25 352 17 29 75 76 93 76 5 0 10
-73 11 -162z m355 -84 c98 -62 116 -454 57 -1214 -23 -296 -11 -829 30 -1315
l4 -50 -14 43 c-28 91 -137 742 -179 1072 -33 261 -43 542 -25 757 7 87 13
264 13 393 -1 129 3 252 8 272 17 68 47 79 106 42z m267 -185 c25 -7 40 -18
44 -32 4 -17 6 -18 11 -5 5 14 19 9 87 -29 l82 -46 6 -151 c7 -155 -5 -482
-25 -680 -10 -104 -15 -120 -75 -251 -96 -214 -125 -328 -179 -725 -27 -194
-75 -593 -75 -622 0 -10 -4 -18 -9 -18 -17 0 -35 291 -35 575 -1 289 -1 291
37 520 20 127 51 300 67 385 16 85 36 209 45 275 21 168 65 661 64 710 -1 22
-6 0 -11 -50 -5 -49 -22 -229 -39 -400 -19 -189 -43 -378 -64 -485 -43 -223
-82 -461 -104 -637 l-18 -138 -8 68 c-11 96 1 564 19 797 9 107 20 348 25 536
7 280 12 346 25 372 21 42 59 51 130 31z m299 -164 c25 -19 50 -42 55 -51 18
-33 -64 -562 -108 -691 l-30 -88 5 60 c16 203 27 531 22 658 -4 81 -3 147 2
147 4 0 29 -16 54 -35z m-808 -395 c25 -102 53 -210 61 -240 8 -30 23 -147 34
-261 36 -380 135 -1012 214 -1369 25 -112 43 -206 41 -208 -2 -2 -9 15 -15 39
-7 24 -54 153 -106 286 -93 241 -163 456 -183 563 -6 30 -13 96 -15 145 -3 50
-8 140 -12 200 -3 61 -17 193 -30 295 -13 102 -33 255 -44 340 -19 140 -41
475 -39 590 0 33 7 14 24 -75 12 -66 44 -203 70 -305z m1564 302 c-81 -85
-275 -295 -311 -336 l-27 -31 -21 50 c-12 27 -19 58 -16 70 9 33 180 219 233
253 63 40 117 60 167 61 l39 1 -64 -68z m99 28 c2 -13 -1 -41 -7 -62 -15 -49
-129 -219 -221 -328 -39 -47 -93 -120 -120 -163 -52 -84 -60 -83 -60 1 0 42
12 65 109 222 109 174 260 365 285 357 6 -2 13 -14 14 -27z m-736 -82 c59
-112 77 -169 77 -238 1 -96 -41 -255 -114 -425 -98 -232 -110 -261 -159 -398
-57 -157 -205 -665 -251 -865 -19 -81 -44 -176 -54 -212 -27 -91 -26 -48 4
195 85 682 113 815 216 1038 34 73 74 164 90 204 53 131 99 362 130 651 6 61
15 112 20 112 5 0 23 -28 41 -62z m915 -23 c11 -8 23 -25 27 -39 15 -61 -57
-199 -178 -339 -42 -48 -122 -149 -179 -225 -57 -75 -132 -172 -168 -214 -61
-75 -66 -78 -106 -78 -24 0 -43 3 -43 6 0 4 9 32 20 63 11 31 26 99 34 151 12
84 19 104 64 180 28 47 68 106 89 131 21 26 73 90 115 142 108 133 171 195
220 217 52 24 77 25 105 5z m-433 -127 c-44 -74 -140 -226 -150 -237 -10 -12
-14 -8 -19 23 -7 35 -4 40 71 124 73 80 94 101 102 102 2 0 0 -6 -4 -12z m610
-34 c22 -21 21 -23 -25 -89 -75 -107 -148 -187 -396 -437 -230 -230 -248 -245
-270 -235 -12 5 -23 13 -23 16 0 11 32 53 105 141 40 47 122 147 183 224 218
270 312 370 364 385 46 13 45 13 62 -5z m28 -104 c-1 -67 -17 -113 -63 -180
-44 -65 -256 -276 -425 -422 l-120 -105 -38 15 -37 15 208 206 c260 257 316
319 423 468 25 33 47 60 48 58 2 -2 4 -27 4 -55z m-893 -124 l21 -33 -39 -114
c-52 -151 -79 -215 -166 -395 -91 -186 -119 -256 -205 -509 -37 -110 -87 -249
-110 -310 -72 -189 -236 -562 -244 -554 -5 5 159 653 208 824 103 355 164 528
267 755 28 63 69 164 90 223 46 128 63 163 86 176 22 12 63 -16 92 -63z m1059
24 c21 -13 30 -25 25 -33 -11 -19 -185 -257 -263 -360 -40 -54 -119 -139 -186
-200 l-117 -106 -27 19 c-32 23 -68 38 -129 54 l-43 12 143 126 c130 113 198
181 393 387 69 72 131 121 155 121 9 0 31 -9 49 -20z m91 -69 l33 -28 -53 -50
c-80 -74 -237 -214 -272 -243 -39 -31 -35 -25 93 150 59 80 115 157 124 173
23 34 32 34 75 -2z m-1095 -72 c19 -67 16 -137 -10 -240 -23 -93 -50 -142
-110 -199 -89 -85 -139 -172 -285 -498 -42 -96 -80 -176 -83 -179 -6 -6 97
304 134 402 12 33 63 146 113 250 94 200 163 369 192 472 10 35 21 61 25 58 4
-2 15 -32 24 -66z m1172 -4 c19 -47 18 -104 -5 -141 -27 -44 -129 -118 -299
-214 -81 -46 -194 -120 -251 -163 -79 -60 -108 -77 -120 -70 -8 5 -16 14 -18
19 -4 12 652 604 670 604 4 0 15 -16 23 -35z m-24 -222 c-39 -76 -115 -163
-269 -310 -137 -130 -219 -193 -251 -193 -4 0 -30 25 -57 57 l-49 56 40 34
c64 55 231 165 362 239 68 38 149 90 180 115 31 26 58 45 60 44 2 -2 -5 -20
-16 -42z m-1114 -215 c27 -27 10 -81 -53 -168 -42 -59 -183 -317 -350 -641
-138 -269 -148 -285 -290 -434 l-85 -90 50 107 c27 59 82 180 120 269 194 445
332 738 395 839 60 95 173 158 213 118z m235 -104 c31 -16 47 -31 47 -47 0 -4
-39 -49 -87 -100 -121 -129 -209 -236 -382 -466 -99 -131 -179 -225 -233 -275
-45 -41 -84 -73 -86 -71 -6 6 59 133 225 440 209 385 239 438 270 467 65 62
179 86 246 52z m706 -155 c43 -6 106 -8 151 -5 78 7 109 -3 73 -23 -10 -5 -79
-57 -153 -115 -118 -92 -246 -175 -254 -164 -1 1 -24 41 -51 88 -26 47 -58 99
-71 117 -13 17 -24 34 -24 36 0 5 156 73 185 80 21 5 30 4 144 -14z m-573 -5
c70 -33 134 -138 115 -188 -13 -32 -33 -47 -197 -144 -83 -49 -250 -163 -370
-253 -177 -132 -346 -247 -523 -354 -38 -23 22 39 119 122 120 103 158 143
255 268 328 425 414 527 470 551 41 18 90 17 131 -2z m936 -37 c36 -20 88 -81
88 -104 0 -14 -37 -20 -219 -34 -80 -6 -163 -17 -184 -25 -72 -25 -63 -17 122
125 104 79 115 81 193 38z m102 -177 c16 -122 -27 -171 -249 -282 -88 -44
-190 -100 -227 -124 l-68 -43 -14 52 c-42 149 -75 264 -81 278 -4 12 21 28
114 73 129 61 143 64 502 95 12 1 18 -11 23 -49z m-856 -97 c30 -14 112 -97
112 -113 0 -4 -57 -24 -127 -44 -71 -20 -157 -49 -193 -64 -58 -24 -221 -128
-445 -284 -95 -67 -414 -250 -578 -333 -108 -54 -118 -58 -133 -43 -19 19 -14
29 42 90 63 68 115 107 308 227 99 62 263 174 365 250 271 201 411 289 511
322 58 19 83 18 138 -8z m131 -168 c5 -19 7 -52 4 -75 -7 -47 -6 -47 -213 -80
-167 -26 -256 -45 -339 -71 -35 -10 -66 -18 -68 -15 -6 6 196 135 261 166 34
15 117 45 186 65 69 20 127 39 129 41 14 13 31 -1 40 -31z m772 14 c49 -34
167 -227 154 -249 -2 -4 -66 -10 -142 -14 -88 -5 -204 -20 -320 -42 -100 -19
-189 -34 -197 -34 -14 0 -76 92 -76 113 0 23 307 188 414 223 89 29 130 30
167 3z m-781 -154 c0 -15 -35 -71 -54 -87 -42 -35 -236 -108 -391 -148 -180
-45 -221 -63 -462 -196 -94 -53 -202 -106 -240 -119 -78 -27 -258 -59 -282
-50 -10 4 27 28 108 71 227 118 441 243 586 340 89 59 206 103 352 129 309 57
383 69 383 60z m74 -47 c14 -6 49 -45 78 -86 28 -42 69 -92 90 -113 l39 -38
-88 -26 c-48 -14 -108 -33 -133 -41 -76 -25 -148 -28 -245 -9 -68 13 -140 17
-300 16 -196 0 -208 1 -181 15 46 25 132 53 251 79 188 42 363 120 410 181 28
37 40 40 79 22z m874 -107 c5 -45 -24 -118 -51 -133 -16 -9 -94 -11 -282 -9
l-260 2 -37 42 c-20 23 -33 45 -30 49 12 12 323 69 422 77 52 5 127 8 165 7
l70 -1 3 -34z m-622 -173 c50 -54 72 -91 109 -187 19 -50 35 -94 35 -99 0 -5
-25 -1 -55 10 -30 10 -179 36 -332 59 -253 37 -283 43 -333 72 -30 17 -93 50
-140 74 l-85 43 45 1 c75 3 131 -2 227 -17 139 -21 177 -18 329 27 77 22 144
42 149 44 19 6 21 5 51 -27z m329 8 c174 -4 247 -21 317 -72 27 -19 57 -52 69
-76 18 -36 21 -52 15 -112 -4 -39 -10 -74 -15 -79 -14 -14 -202 13 -376 54
-93 22 -170 41 -171 42 -1 1 -16 36 -33 78 -18 42 -45 97 -61 123 -17 26 -30
48 -30 50 0 2 30 2 68 0 37 -2 135 -5 217 -8z m-1120 -66 c33 -11 101 -45 152
-76 50 -30 106 -59 125 -64 18 -5 143 -23 278 -40 353 -44 386 -57 400 -146 5
-27 5 -52 2 -55 -7 -7 -482 41 -612 61 -41 7 -122 29 -180 51 -155 56 -213 69
-320 69 -101 0 -163 -13 -340 -73 -81 -27 -109 -32 -195 -32 -105 0 -176 18
-226 56 l-24 19 37 0 c60 0 182 27 255 56 37 14 132 62 210 106 87 49 161 83
190 88 69 13 179 4 248 -20z m1118 -229 c137 -33 221 -48 319 -57 l66 -5 -19
-56 c-22 -66 -68 -146 -108 -191 l-30 -34 -53 25 c-29 14 -107 62 -173 109
-130 90 -124 83 -148 206 -8 40 -10 40 146 3z m-1040 -25 c93 -32 368 -144
686 -280 105 -44 161 -81 161 -104 0 -27 -47 -116 -76 -143 l-26 -24 -61 34
c-34 18 -119 69 -189 112 -246 153 -382 215 -568 262 -75 19 -110 21 -300 19
-187 -1 -225 1 -294 19 -106 27 -125 38 -64 39 26 0 91 14 145 31 210 67 271
80 378 76 84 -3 118 -10 208 -41z m-734 -110 c64 -18 152 -41 196 -51 136 -29
264 -97 486 -255 137 -99 228 -144 319 -161 64 -11 70 -14 54 -26 -35 -25
-116 -15 -251 32 -70 24 -195 58 -278 75 -176 36 -262 62 -325 98 -45 26 -363
339 -332 327 9 -3 68 -21 131 -39z m1336 -6 c153 -17 281 -33 284 -35 6 -6
-16 -182 -24 -196 -5 -7 -13 -5 -24 5 -22 20 -127 68 -364 167 -198 83 -227
98 -180 92 15 -2 154 -17 308 -33z m371 -36 c18 -13 51 -58 74 -101 24 -43 56
-97 72 -121 l30 -43 -29 -41 c-15 -23 -41 -49 -57 -59 -35 -21 -138 -34 -201
-24 l-46 6 20 32 c39 63 72 184 78 287 4 68 9 97 17 93 6 -3 25 -16 42 -29z
m-1025 -17 c166 -43 291 -106 672 -338 78 -47 86 -55 71 -66 -34 -25 -83 -26
-157 -4 -82 24 -128 27 -157 9 -16 -10 -36 -9 -102 4 -105 22 -192 66 -343
175 -140 100 -280 181 -359 208 -31 11 -56 22 -56 27 0 11 91 16 220 13 81 -3
143 -11 211 -28z m1259 -137 l45 -23 -45 -38 -45 -39 -22 28 c-24 28 -87 133
-99 165 -4 12 14 4 57 -26 35 -25 84 -55 109 -67z"/>
<path d="M63 14333 c32 -2 81 -2 110 0 29 2 3 3 -58 3 -61 0 -84 -1 -52 -3z"/>
<path d="M24694 11026 c-100 -44 -154 -102 -154 -166 l0 -35 -114 0 c-100 0
-118 -3 -143 -21 -50 -37 -73 -81 -73 -142 l0 -55 -72 70 c-74 71 -114 91
-210 108 -103 17 -248 -42 -345 -141 -96 -98 -144 -212 -159 -377 l-7 -78 -41
8 c-23 4 -88 8 -146 8 -93 0 -112 -3 -162 -27 -63 -29 -130 -93 -160 -151 -38
-75 -24 -194 34 -293 l18 -31 -28 -12 c-44 -19 -82 -60 -111 -120 -22 -48 -26
-70 -26 -147 0 -84 2 -94 31 -141 31 -49 32 -54 27 -134 -3 -55 1 -102 10
-137 14 -52 14 -53 -13 -88 -55 -69 -65 -200 -21 -285 39 -75 98 -146 169
-202 146 -117 309 -227 484 -326 101 -57 291 -172 423 -255 557 -348 645 -386
910 -386 106 0 130 4 201 28 90 32 164 78 253 157 39 34 77 58 103 66 86 23
228 -10 324 -76 40 -28 171 -153 229 -219 6 -6 58 -65 116 -131 821 -932 1567
-2116 2088 -3313 l32 -73 -6 -477 c-16 -1384 -13 -1643 25 -2092 57 -673 80
-962 91 -1142 l13 -198 24 0 c20 0 23 4 18 27 -3 16 -8 78 -11 138 -6 111 -87
1095 -105 1280 -23 241 -31 789 -21 1478 6 381 11 735 11 787 0 59 4 89 9 80
18 -30 164 -419 222 -590 209 -615 327 -1180 349 -1670 5 -113 12 -286 15
-385 4 -99 11 -211 16 -250 9 -66 178 -886 184 -893 2 -2 12 -2 23 0 19 3 12
40 -153 803 -14 68 -24 219 -45 695 -5 124 -16 272 -25 330 -39 265 -48 323
-72 445 -80 423 -269 1028 -468 1505 l-57 135 -9 205 c-9 208 -29 422 -75 785
-39 312 -40 438 -10 950 28 474 40 576 77 653 31 63 98 128 167 160 53 25 71
27 232 33 196 7 238 17 364 82 87 45 186 131 248 214 57 78 134 229 248 488
116 262 143 315 250 475 81 121 231 373 281 471 20 41 29 73 29 106 l-1 48
-14 -32 c-34 -79 -55 -119 -153 -288 -58 -99 -140 -232 -182 -295 -106 -158
-123 -191 -250 -474 -174 -388 -216 -462 -326 -571 -88 -88 -242 -164 -361
-180 l-48 -6 73 40 c207 116 322 228 455 447 74 121 96 166 160 329 101 255
315 986 381 1300 l33 160 49 -2 c51 -3 134 -29 134 -42 0 -4 -20 -74 -45 -155
-25 -82 -45 -153 -45 -160 1 -18 49 113 77 209 14 50 27 92 29 94 2 2 10 -2
19 -9 13 -11 15 -9 15 14 0 34 -33 55 -134 82 -44 12 -101 30 -126 39 -64 24
-181 22 -255 -4 -41 -14 -61 -17 -66 -10 -3 6 -9 37 -12 69 -13 119 -69 222
-160 290 -76 58 -135 75 -259 75 l-106 0 -12 38 c-6 22 -29 59 -52 83 -80 87
-192 131 -356 141 -202 11 -385 -43 -575 -171 l-69 -45 -37 25 c-22 14 -65 29
-100 35 -93 15 -167 -2 -288 -63 l-102 -52 -85 11 c-138 17 -233 -9 -308 -82
-76 -73 -128 -209 -132 -344 -1 -58 -6 -86 -15 -89 -6 -2 -40 23 -74 55 -104
100 -178 124 -261 83 -134 -64 -200 -240 -162 -429 29 -144 72 -244 345 -816
l100 -210 -67 -5 c-76 -6 -113 -24 -142 -72 -55 -90 -20 -282 81 -456 44 -74
233 -263 331 -330 285 -195 643 -280 971 -233 120 18 137 11 181 -74 29 -55
30 -59 30 -218 1 -89 -10 -343 -23 -565 -28 -462 -27 -498 33 -987 34 -273 56
-529 56 -643 l-1 -57 -63 140 c-524 1160 -1292 2344 -2101 3240 -49 55 -92
102 -95 105 -3 3 -34 38 -68 78 -86 100 -116 161 -116 237 -1 79 29 127 145
228 158 138 306 364 350 536 26 99 35 324 20 496 -12 141 -132 1075 -156 1219
-22 129 -48 170 -185 290 -63 56 -145 129 -182 163 -38 34 -94 74 -125 88 -50
24 -66 27 -133 23 l-75 -4 -27 36 c-14 21 -47 48 -74 61 -43 21 -63 24 -174
25 -106 0 -132 4 -170 22 -53 25 -176 30 -226 8z m150 -31 c16 -17 36 -79 77
-240 15 -60 28 -104 28 -97 2 26 -38 207 -59 266 -11 33 -20 63 -20 67 0 9 99
-27 114 -41 5 -5 19 -51 31 -102 26 -107 33 -94 9 18 -8 42 -13 78 -11 80 10
11 120 22 154 17 58 -9 131 -49 148 -82 14 -28 14 -30 -20 -55 -46 -36 -84
-103 -91 -163 -6 -49 -7 -49 -77 -88 -120 -65 -168 -117 -214 -235 -21 -54
-21 -54 -27 -25 -55 257 -143 415 -264 469 -48 22 -57 41 -43 94 23 83 214
168 265 117z m711 -174 c33 -15 81 -47 106 -70 l47 -41 26 -140 c79 -415 228
-1248 251 -1400 60 -400 34 -738 -71 -928 -35 -63 -143 -182 -164 -182 -5 0
-1 22 10 50 11 27 30 96 42 152 21 94 23 129 23 393 0 357 -27 597 -111 1000
-41 197 -143 589 -151 582 -2 -2 26 -123 61 -268 141 -578 190 -921 190 -1319
0 -255 -13 -361 -59 -493 -24 -70 -72 -153 -82 -143 -3 3 -1 25 5 48 62 245
22 578 -169 1413 -90 392 -132 559 -199 790 -52 179 -62 226 -67 317 -6 102
-5 108 21 152 29 49 69 82 125 102 56 20 101 16 166 -15z m-1049 -32 c120 -22
196 -84 260 -214 47 -95 71 -223 78 -425 4 -91 9 -181 13 -200 11 -65 -10 -21
-44 93 -51 167 -187 506 -199 494 -3 -3 1 -18 10 -35 26 -51 96 -232 147 -382
71 -206 113 -375 159 -642 74 -421 132 -598 336 -1010 64 -128 111 -228 105
-223 -5 6 -73 115 -150 243 -233 388 -324 581 -564 1192 -64 162 -136 346
-161 408 -25 63 -78 176 -120 251 -112 205 -144 297 -126 363 24 84 111 114
256 87z m-491 -68 c119 -56 277 -247 390 -471 39 -78 51 -107 260 -640 222
-565 328 -784 580 -1200 66 -109 52 -100 -80 50 -137 156 -289 349 -416 527
-62 87 -140 196 -174 243 -34 47 -95 132 -135 190 -226 321 -465 610 -759 919
-80 84 -147 159 -149 166 -6 27 137 185 168 185 9 0 155 -176 234 -282 57 -77
77 -97 56 -59 -18 34 -161 224 -218 289 -30 35 -53 64 -51 66 2 2 15 9 28 16
27 14 31 10 154 -130 47 -53 48 -53 18 -10 -16 25 -50 70 -74 100 -52 64 -49
68 48 69 46 1 74 -6 120 -28z m1840 -146 c90 -78 130 -124 152 -175 8 -19 30
-152 48 -295 19 -143 52 -395 74 -560 54 -401 61 -481 61 -655 0 -225 -32
-353 -126 -509 -50 -81 -127 -183 -165 -216 l-23 -20 21 30 c134 196 171 549
104 1000 -32 216 -107 637 -211 1181 -33 172 -60 315 -60 320 0 4 10 -2 23
-13 12 -11 58 -51 102 -88z m-629 -32 c13 -77 35 -170 75 -305 57 -199 192
-759 263 -1088 131 -616 156 -924 88 -1108 -15 -40 -22 -47 -48 -50 -18 -2
-39 4 -53 15 -22 18 -22 24 -25 233 -2 189 -6 230 -30 340 -30 143 -77 322
-83 317 -2 -2 15 -80 37 -173 60 -258 81 -454 64 -601 -4 -29 -10 -53 -14 -53
-4 0 -18 26 -30 58 -12 31 -67 147 -122 257 -156 315 -178 435 -157 845 16
324 9 378 -85 614 -79 199 -91 239 -106 360 -13 102 -4 190 25 247 15 28 43
55 50 47 3 -2 28 -94 55 -204 28 -109 53 -203 55 -209 13 -29 -13 101 -51 255
-24 96 -40 176 -36 178 4 1 30 15 57 32 28 16 53 29 57 29 4 1 10 -16 14 -36z
m-1615 -150 c318 -326 656 -745 953 -1183 184 -269 394 -540 620 -798 189
-215 256 -308 256 -357 0 -19 -4 -36 -8 -39 -10 -6 -198 184 -375 381 -173
191 -276 288 -827 769 -146 127 -300 263 -342 303 -136 128 -326 360 -378 461
-43 85 -63 289 -40 411 12 60 39 139 49 139 4 0 45 -39 92 -87z m1361 -111
c-5 -121 14 -226 63 -353 126 -322 143 -412 124 -647 -11 -134 -8 -416 6 -487
10 -54 -33 50 -86 207 -49 145 -76 271 -144 653 -63 356 -59 487 24 698 6 15
12 27 14 27 1 0 1 -44 -1 -98z m-1596 -125 c30 -11 40 -21 46 -43 46 -195 49
-214 37 -236 -6 -13 -13 -24 -14 -26 -2 -2 -46 32 -98 75 -85 70 -186 140
-147 101 12 -11 222 -183 239 -194 2 -2 -1 -19 -5 -40 l-9 -36 -50 41 c-73 60
-79 50 -8 -14 53 -47 61 -60 67 -100 8 -65 37 -125 82 -176 26 -29 32 -40 19
-34 -124 52 -266 69 -374 45 -117 -26 -225 -105 -268 -195 -20 -42 -28 -43
-47 -7 -27 53 -30 116 -7 191 25 83 59 127 118 152 24 10 43 24 43 32 0 7 -15
44 -34 81 -44 87 -53 150 -32 214 28 82 125 160 227 182 55 11 163 5 215 -13z
m175 -319 c105 -164 302 -367 669 -689 581 -510 690 -612 895 -844 49 -55 131
-144 184 -197 52 -54 92 -100 89 -104 -15 -15 -127 77 -236 194 -297 319 -403
400 -650 497 -157 62 -193 92 -462 384 -57 63 -196 192 -307 288 -239 205
-256 228 -262 345 -2 57 2 91 15 128 10 27 21 50 25 50 4 0 22 -24 40 -52z
m4889 -122 c0 -8 -7 -48 -16 -91 -9 -42 -14 -78 -11 -81 2 -2 9 22 16 53 7 32
17 75 22 97 l10 38 52 -6 c28 -4 53 -9 54 -10 2 -2 -19 -90 -46 -197 -27 -107
-52 -214 -55 -239 -5 -37 58 191 106 383 13 55 21 57 96 22 103 -48 162 -113
177 -196 14 -75 -60 -465 -150 -799 -164 -607 -195 -764 -230 -1200 -18 -219
-36 -342 -71 -476 -30 -116 -86 -244 -115 -264 -25 -17 -26 -29 6 135 10 54
17 158 19 320 l4 240 -8 -205 c-8 -229 -12 -263 -42 -402 -22 -101 -27 -108
-76 -100 -16 3 -31 23 -56 76 -90 188 -132 449 -142 896 -15 590 70 1295 216
1794 49 168 68 214 88 219 10 3 47 5 85 6 51 1 67 -2 67 -13z m-229 -135 c-96
-287 -175 -704 -216 -1139 -53 -558 -31 -1172 51 -1460 20 -67 13 -87 -14 -43
-68 111 -144 476 -184 876 -21 206 -17 1003 5 1225 27 270 58 513 67 530 18
34 320 161 328 139 2 -4 -15 -62 -37 -128z m-566 -38 c10 -59 13 -62 14 -10 1
46 2 47 29 41 15 -4 44 -16 64 -27 l36 -20 -49 -59 c-27 -33 -62 -85 -78 -116
-56 -111 -63 -150 -68 -380 -5 -205 -6 -215 -28 -240 -13 -15 -26 -24 -29 -21
-4 3 -11 46 -16 95 -14 129 -42 306 -47 300 -2 -2 5 -77 16 -166 27 -205 27
-261 3 -284 -18 -16 -20 -12 -36 85 -9 56 -21 109 -26 118 -8 13 -9 11 -6 -9
37 -201 40 -229 21 -270 -10 -22 -21 -40 -25 -40 -4 0 -24 46 -45 103 -20 56
-51 126 -67 155 -45 80 -131 167 -196 199 -54 26 -64 28 -184 27 l-128 0 0 46
c0 63 34 191 66 250 28 51 80 108 89 98 4 -3 22 -67 42 -142 20 -75 38 -135
40 -133 2 2 -10 60 -27 128 -35 145 -36 165 -11 179 40 21 48 12 65 -67 19
-82 34 -129 35 -103 0 8 -8 53 -18 100 l-18 85 25 9 c15 5 51 4 93 -3 105 -17
120 -14 223 40 91 47 146 65 208 68 24 1 28 -4 33 -36z m255 -3 c0 -6 -7 -52
-15 -104 -8 -52 -24 -181 -35 -287 -80 -779 -32 -1643 116 -2092 14 -43 24
-81 21 -83 -3 -3 -40 13 -82 36 -68 38 -81 50 -126 119 -70 106 -208 386 -252
511 -133 377 -152 692 -53 905 37 79 121 180 130 155 2 -8 14 -87 26 -175 22
-167 58 -345 70 -345 4 0 -1 33 -10 74 -10 41 -29 143 -42 227 -20 136 -23
183 -20 404 2 163 7 272 16 316 22 103 68 183 156 272 73 72 100 91 100 67z
m-4497 -59 c202 -52 405 -198 643 -462 147 -164 272 -283 326 -310 21 -11 70
-31 110 -45 100 -36 210 -94 293 -156 72 -53 588 -566 599 -595 27 -68 -394
155 -637 339 -178 134 -802 652 -927 769 -117 108 -173 150 -75 55 94 -92 273
-249 450 -396 43 -36 110 -92 149 -126 395 -339 713 -553 971 -654 33 -13 62
-25 64 -26 10 -8 -23 -63 -44 -72 -84 -38 -277 -39 -418 -3 -272 71 -549 239
-972 592 -301 251 -365 305 -490 422 -242 226 -260 241 -95 76 224 -224 665
-602 894 -766 388 -278 734 -406 985 -364 36 6 67 8 69 6 3 -2 -12 -25 -32
-49 -78 -95 -198 -123 -373 -87 -231 48 -480 161 -753 344 -133 89 -167 115
-500 381 -385 308 -513 417 -696 592 -39 37 -54 86 -54 177 0 81 15 145 47
203 43 77 40 78 170 -45 121 -113 300 -261 316 -261 5 0 -33 35 -85 77 -51 43
-146 129 -211 192 -96 93 -115 116 -105 128 13 16 62 43 77 43 5 0 51 -39 101
-87 124 -119 138 -118 21 1 -52 52 -93 97 -90 100 8 8 102 24 150 25 25 0 80
-8 122 -18z m5720 -29 c75 -27 132 -66 168 -115 35 -48 35 -44 -2 -305 -11
-79 -18 -146 -16 -149 6 -5 33 143 48 265 6 50 15 92 19 92 5 0 13 -21 18 -47
38 -178 17 -363 -79 -708 -54 -191 -90 -291 -174 -490 -77 -180 -156 -396
-225 -610 -63 -194 -124 -317 -200 -398 -66 -71 -157 -143 -167 -133 -3 3 1
14 9 23 71 84 174 302 242 513 62 192 96 351 171 800 37 217 79 458 95 535 16
76 28 141 26 143 -10 10 -71 -291 -126 -618 -90 -540 -135 -734 -227 -980 -64
-171 -168 -360 -242 -439 -42 -45 -57 -38 -26 12 71 116 162 332 152 361 -2 6
-8 -5 -12 -24 -19 -87 -131 -308 -193 -381 -13 -16 -32 -29 -42 -29 -17 0 -16
6 11 58 31 62 81 243 98 353 6 36 18 148 26 250 39 464 80 686 218 1184 74
266 135 555 164 780 8 56 10 60 38 66 64 14 175 9 228 -9z m-2598 -508 c32
-91 61 -162 62 -157 2 5 -21 80 -52 167 l-55 158 37 -7 c45 -8 114 -54 147
-98 13 -17 56 -113 96 -212 73 -184 232 -524 237 -508 2 5 -23 65 -56 134 -55
116 -199 455 -216 507 -6 20 -4 23 15 20 17 -2 29 -23 59 -103 21 -55 55 -131
75 -170 43 -81 41 -74 -13 55 -22 52 -51 126 -65 163 l-25 68 26 10 c49 18
147 27 207 17 161 -25 271 -153 359 -418 l36 -106 -15 -94 c-7 -52 -14 -102
-15 -110 0 -8 -11 14 -25 50 -73 195 -87 230 -91 227 -2 -2 23 -80 56 -173 39
-111 61 -193 66 -239 9 -95 41 -248 76 -364 34 -115 36 -127 8 -81 -86 139
-243 486 -394 867 -49 123 -90 221 -92 219 -11 -10 206 -558 301 -761 28 -60
86 -175 129 -255 43 -80 122 -233 175 -340 54 -107 117 -224 139 -260 23 -35
40 -66 39 -68 -2 -1 -31 4 -66 12 -73 17 -85 27 -197 166 -129 160 -238 331
-343 539 -66 129 -86 159 -44 64 98 -223 275 -504 428 -683 52 -60 47 -72 -21
-49 -84 28 -280 256 -420 489 -90 151 -222 436 -308 668 -15 40 -29 72 -31 70
-6 -7 100 -287 160 -423 115 -260 258 -493 407 -664 79 -91 80 -93 40 -70 -61
34 -187 137 -252 205 -135 144 -332 532 -570 1126 -97 244 -119 278 -38 61
146 -394 343 -826 468 -1028 27 -44 48 -81 46 -83 -2 -3 -192 120 -247 161
-20 14 -383 778 -432 910 -68 183 -73 307 -18 420 17 34 41 72 54 84 21 20 76
53 88 53 3 0 32 -75 65 -166z m3182 111 l50 -15 -23 -112 c-56 -277 -222 -866
-338 -1203 -134 -391 -296 -661 -488 -812 -115 -91 -126 -91 -41 1 292 314
499 834 613 1540 32 199 61 463 59 541 -1 39 -4 31 -10 -35 -112 -1113 -396
-1863 -819 -2161 -77 -55 -116 -69 -160 -60 l-32 6 58 40 c85 58 223 201 288
298 85 127 209 394 272 583 31 91 54 168 51 170 -3 3 -19 -39 -37 -93 -75
-227 -196 -494 -290 -638 -79 -121 -320 -349 -366 -347 -27 2 -5 26 68 75 188
125 271 258 379 607 49 162 110 325 200 536 141 333 246 700 264 919 10 125 9
124 120 156 75 22 118 23 182 4z m-6677 -212 c150 -137 205 -184 484 -408 136
-110 292 -235 345 -278 333 -268 668 -454 963 -531 117 -31 69 -35 -75 -5
-223 45 -414 124 -697 289 -137 80 -347 218 -480 315 -264 193 -522 376 -525
373 -5 -5 358 -276 525 -394 331 -232 507 -340 733 -450 156 -75 276 -115 446
-150 126 -26 207 -28 346 -8 l40 6 -35 -23 c-70 -44 -139 -62 -257 -67 -263
-10 -358 28 -873 350 -146 91 -357 218 -470 283 -204 117 -469 303 -548 385
-118 123 -146 266 -72 369 17 22 33 41 38 41 4 0 54 -43 112 -97z m3646 -1238
c71 -36 137 -102 129 -129 -3 -12 -8 -59 -10 -106 l-4 -85 9 75 c5 41 13 86
17 98 9 22 12 19 55 -45 71 -107 69 -99 56 -217 -14 -125 -3 -232 35 -326 14
-33 21 -60 17 -60 -11 0 -99 71 -131 106 -97 106 -192 323 -218 500 -7 51 -9
53 -10 19 -2 -100 58 -280 138 -413 l48 -81 -37 30 c-148 119 -262 332 -264
494 -1 93 8 122 47 145 42 26 63 25 123 -5z m112 -22 c88 -56 233 -164 337
-252 212 -181 286 -221 482 -261 76 -15 158 -36 183 -46 l45 -19 -75 -6 c-41
-3 -113 -13 -159 -23 -72 -16 -94 -17 -153 -7 -192 32 -336 137 -466 341 -94
148 -133 201 -188 248 -49 44 -52 54 -6 25z m199 -352 c28 -44 30 -53 22 -92
-11 -61 -11 -225 2 -278 14 -60 5 -62 -24 -4 -32 62 -49 148 -51 248 -1 70 10
175 18 175 2 0 17 -22 33 -49z m195 -200 l56 -42 -19 -70 c-33 -118 -63 -184
-84 -184 -25 0 -56 55 -71 125 -7 30 -13 43 -13 29 -1 -14 6 -48 14 -74 20
-69 10 -68 -22 1 -25 54 -27 69 -28 184 0 69 3 133 8 144 7 16 12 14 55 -26
26 -24 73 -63 104 -87z m153 -84 c88 -37 169 -50 238 -39 31 5 57 5 57 1 0
-15 -73 -91 -125 -129 -86 -64 -130 -81 -215 -86 -79 -5 -105 5 -81 29 6 6 11
16 11 21 0 6 -7 0 -16 -12 -8 -12 -22 -22 -30 -22 -18 0 -18 3 5 48 16 31 28
68 68 205 2 10 10 16 16 14 7 -3 39 -17 72 -30z m558 4 c17 -6 13 -12 -26 -43
-24 -21 -61 -47 -81 -58 -20 -12 -36 -24 -36 -27 0 -9 102 52 138 83 l38 32
41 -18 c48 -21 113 -84 113 -109 0 -10 -8 -25 -17 -33 -46 -40 -167 -102 -253
-129 -86 -28 -107 -31 -215 -30 -71 0 -140 6 -170 15 l-50 14 46 1 c61 1 211
27 272 47 70 23 53 26 -25 4 -89 -25 -243 -41 -293 -32 l-40 8 40 13 c83 27
174 95 237 175 22 28 47 55 56 60 49 28 182 44 225 27z m207 -193 c0 -36 -33
-77 -79 -99 -56 -26 -161 -49 -226 -48 l-50 0 67 23 c92 32 185 80 233 121 43
35 55 36 55 3z"/>
<path d="M24590 10571 c0 -6 4 -13 10 -16 6 -3 7 1 4 9 -7 18 -14 21 -14 7z"/>
<path d="M25191 10054 c0 -11 3 -14 6 -6 3 7 2 16 -1 19 -3 4 -6 -2 -5 -13z"/>
<path d="M25370 9487 c0 -23 158 -598 159 -580 2 20 -57 256 -105 422 -39 137
-54 180 -54 158z"/>
<path d="M25391 8964 c0 -11 3 -14 6 -6 3 7 2 16 -1 19 -3 4 -6 -2 -5 -13z"/>
<path d="M25401 8924 c0 -11 3 -14 6 -6 3 7 2 16 -1 19 -3 4 -6 -2 -5 -13z"/>
<path d="M24465 9190 c41 -75 601 -750 622 -750 4 0 -1 8 -9 18 -8 9 -57 69
-109 132 -229 277 -493 596 -502 605 -7 7 -7 5 -2 -5z"/>
<path d="M23589 9593 c24 -46 556 -511 569 -498 5 4 -42 46 -178 160 -58 48
-172 148 -253 222 -82 74 -144 126 -138 116z"/>
<path d="M28401 9514 c0 -11 3 -14 6 -6 3 7 2 16 -1 19 -3 4 -6 -2 -5 -13z"/>
<path d="M28452 9210 c0 -14 2 -19 5 -12 2 6 2 18 0 25 -3 6 -5 1 -5 -13z"/>
<path d="M28441 9154 c0 -11 3 -14 6 -6 3 7 2 16 -1 19 -3 4 -6 -2 -5 -13z"/>
<path d="M28302 8483 c-70 -302 -103 -665 -100 -1118 l2 -310 7 340 c9 447 44
826 98 1074 12 52 19 96 17 98 -2 3 -13 -35 -24 -84z"/>
<path d="M27461 9144 c0 -11 3 -14 6 -6 3 7 2 16 -1 19 -3 4 -6 -2 -5 -13z"/>
<path d="M27572 8348 c14 -110 58 -307 95 -427 19 -64 39 -131 45 -148 5 -18
13 -33 17 -33 5 0 2 21 -6 48 -83 271 -124 439 -139 565 -4 31 -10 57 -14 57
-4 0 -3 -28 2 -62z"/>
<path d="M24160 8490 c137 -132 589 -475 604 -459 3 3 -45 40 -107 84 -113 79
-334 250 -482 371 l-80 66 65 -62z"/>
<path d="M29061 8904 c0 -11 3 -14 6 -6 3 7 2 16 -1 19 -3 4 -6 -2 -5 -13z"/>
<path d="M29261 8854 c0 -11 3 -14 6 -6 3 7 2 16 -1 19 -3 4 -6 -2 -5 -13z"/>
<path d="M26791 7229 c0 -30 4 -63 8 -74 5 -11 6 10 3 50 -6 85 -12 98 -11 24z"/>
<path d="M27315 6710 c-3 -5 -2 -10 4 -10 5 0 13 5 16 10 3 6 2 10 -4 10 -5 0
-13 -4 -16 -10z"/>
<path d="M18810 7534 c-176 -21 -302 -76 -405 -179 -39 -38 -83 -86 -97 -105
-25 -34 -25 -34 -51 -17 -15 10 -48 20 -74 23 -27 4 -77 20 -111 36 -115 55
-210 41 -325 -47 -90 -69 -175 -236 -192 -377 -4 -34 -12 -58 -19 -58 -7 0
-34 -14 -61 -31 -37 -23 -50 -28 -54 -18 -8 27 -97 108 -126 115 -68 17 -109
-46 -100 -156 7 -83 31 -174 144 -547 50 -166 91 -306 91 -312 0 -6 -10 -11
-22 -11 -38 -1 -111 -39 -154 -82 l-42 -40 -88 12 c-114 16 -158 3 -186 -52
-17 -33 -18 -44 -9 -89 50 -233 335 -469 716 -593 160 -52 301 -83 460 -101
328 -38 419 -81 469 -222 20 -57 22 -118 12 -463 -11 -409 12 -821 64 -1130
11 -63 25 -164 31 -225 13 -123 7 -184 -50 -455 -79 -382 -101 -626 -82 -945
24 -395 112 -929 222 -1346 29 -108 34 -119 54 -119 l23 0 -19 62 c-55 180
-139 601 -193 973 -50 338 -60 753 -25 1003 26 190 55 356 80 462 11 47 25
132 31 190 11 112 9 128 -46 505 -40 272 -51 458 -50 870 0 416 4 460 55 563
44 89 80 110 262 151 l145 33 98 -17 c159 -27 291 -5 419 70 271 160 524 237
770 236 133 -1 183 -8 366 -56 128 -34 168 -30 216 21 41 44 50 87 28 142 -25
63 -82 105 -181 137 -60 19 -98 39 -130 66 -104 90 -202 124 -335 117 -65 -4
-101 -12 -144 -32 -32 -14 -61 -26 -66 -26 -4 0 8 35 28 78 140 306 205 559
207 797 1 181 -44 303 -133 367 -30 22 -42 40 -60 94 -69 212 -261 337 -492
321 -72 -5 -80 -3 -119 23 -23 15 -87 45 -142 66 l-100 39 -38 65 c-58 98
-127 156 -224 190 -56 19 -182 31 -246 24z m182 -45 c75 -16 143 -53 193 -105
69 -71 82 -109 94 -274 56 -789 -32 -1538 -233 -1976 -89 -191 -210 -313 -315
-314 -28 0 -32 3 -26 18 102 260 141 646 169 1672 9 294 17 578 20 630 3 72 2
84 -4 50 -5 -25 -16 -281 -25 -570 -29 -958 -66 -1420 -135 -1649 -12 -40 -23
-71 -25 -69 -1 1 1 57 6 123 14 204 20 930 10 1140 l-10 200 4 -300 c7 -480
-21 -1203 -46 -1230 -6 -6 -26 8 -55 35 -184 180 -306 559 -334 1039 -29 489
67 1068 240 1437 37 80 39 82 93 102 30 12 67 22 82 24 l27 3 0 -180 1 -180
11 185 11 185 35 6 c59 11 156 10 212 -2z m-462 -93 c0 -2 -14 -34 -31 -72
-236 -517 -306 -1315 -168 -1905 42 -183 121 -371 198 -474 70 -94 55 -93 -43
3 -254 247 -397 834 -356 1461 30 467 101 699 272 893 51 57 128 114 128 94z
m-460 -145 c36 -17 81 -31 102 -31 24 0 46 -8 64 -23 l26 -23 -27 -55 c-15
-29 -28 -55 -30 -57 -1 -1 -18 5 -38 13 -20 8 -54 15 -76 15 -24 0 -72 14
-120 35 -100 44 -164 47 -236 10 -27 -13 -51 -22 -53 -20 -3 2 24 33 59 68
111 111 199 129 329 68z m1321 -63 c150 -59 204 -99 271 -195 67 -99 86 -158
99 -312 14 -171 7 -491 -15 -636 -84 -568 -329 -977 -691 -1158 -69 -34 -204
-81 -212 -73 -2 2 20 17 49 34 158 90 313 271 426 497 166 332 242 736 221
1173 -7 129 -38 377 -47 368 -2 -3 4 -58 14 -123 14 -92 18 -176 18 -378 0
-239 -2 -273 -27 -417 -58 -329 -149 -574 -295 -792 -62 -92 -185 -221 -263
-276 l-63 -44 57 67 c66 78 160 263 206 407 64 198 117 472 146 750 31 290 30
937 -2 1118 -3 17 -3 32 0 32 3 0 51 -19 108 -42z m-1427 -100 c45 -20 93 -33
131 -36 98 -7 101 -11 64 -128 -36 -116 -54 -154 -92 -197 l-27 -32 4 50 c5
49 5 49 -12 -16 -9 -36 -33 -89 -52 -119 l-34 -53 -9 29 c-7 26 -6 71 8 284 4
57 3 60 -5 25 -5 -22 -13 -110 -16 -197 -8 -178 -11 -183 -70 -86 -20 33 -54
80 -75 104 -29 33 -39 55 -41 82 l-1 37 -4 -32 c-5 -38 -3 -37 -39 -18 -16 8
-46 18 -66 21 -35 6 -38 9 -38 39 0 78 58 191 121 236 80 57 138 58 253 7z
m1939 -35 c120 -57 217 -172 237 -284 9 -48 -4 -263 -25 -419 -49 -360 -181
-763 -331 -1013 -132 -220 -305 -388 -464 -453 -87 -35 -85 -30 9 24 154 86
291 238 375 415 104 221 166 546 166 882 0 77 7 221 15 320 8 99 14 216 14
260 -1 64 -4 47 -14 -83 -7 -90 -15 -165 -17 -167 -2 -3 -16 49 -30 114 -31
143 -80 266 -142 359 -25 39 -46 73 -46 77 0 4 42 6 93 3 77 -3 103 -9 160
-35z m-2564 -248 c55 -50 66 -82 85 -240 76 -641 268 -1207 494 -1457 45 -50
28 -48 -44 5 -134 99 -239 268 -327 527 -33 98 -221 707 -272 885 -44 150 -55
243 -33 290 16 36 50 32 97 -10z m327 -52 c52 -23 111 -80 133 -127 19 -39 20
-50 11 -112 -5 -38 -9 -91 -8 -119 0 -36 4 -21 12 52 6 56 14 104 17 107 3 3
20 -10 38 -28 l33 -34 -36 -91 c-54 -133 -76 -243 -83 -416 -9 -241 22 -401
112 -572 74 -140 203 -297 327 -400 43 -36 78 -69 78 -75 0 -7 -14 -8 -36 -5
-140 23 -303 197 -409 436 -120 270 -180 579 -195 1001 l-8 225 3 -255 c2
-194 8 -286 23 -385 66 -420 185 -722 357 -901 34 -35 59 -64 56 -64 -17 0
-82 49 -132 100 -197 201 -366 613 -468 1140 -37 193 -74 462 -64 471 5 3 26
18 48 33 l40 26 5 -132 6 -133 2 137 c2 133 3 137 25 141 30 6 75 -2 113 -20z
m475 -70 c-51 -337 -37 -800 33 -1129 59 -277 196 -542 338 -655 36 -29 45
-39 28 -34 -105 32 -275 220 -384 425 -127 240 -191 476 -205 755 l-8 150 -1
-120 c-4 -255 69 -550 193 -782 58 -111 101 -173 180 -265 37 -43 63 -78 58
-78 -20 0 -148 108 -230 194 -147 154 -246 320 -296 501 -24 90 -35 349 -18
465 25 171 74 308 156 436 44 69 158 215 163 209 2 -2 -1 -34 -7 -72z m1659
-33 c67 -286 35 -842 -66 -1155 -30 -90 -98 -233 -146 -303 -47 -70 -164 -184
-237 -230 -70 -46 -188 -95 -296 -123 -104 -28 -108 -23 -17 21 406 196 661
632 733 1255 13 118 16 389 5 528 -4 53 -6 97 -3 97 3 0 15 -41 27 -90z m436
8 c33 -35 64 -103 64 -138 0 -17 4 -29 9 -26 4 3 11 -15 15 -41 32 -234 -67
-627 -249 -993 -153 -306 -375 -534 -596 -610 -81 -29 -199 -41 -199 -22 0 5
28 16 62 26 114 32 237 101 348 197 283 243 493 665 580 1166 11 65 22 150 24
188 2 39 2 54 -1 35 -37 -315 -137 -667 -250 -889 -163 -318 -341 -509 -591
-635 -92 -46 -100 -46 -25 3 183 118 357 345 483 631 125 282 218 666 235 970
3 58 8 124 11 147 l5 43 27 -14 c15 -8 37 -25 48 -38z m-2750 -960 c20 -62 52
-149 71 -193 18 -44 33 -84 33 -89 0 -13 -88 106 -145 194 -26 41 -45 68 -42
59 12 -35 123 -206 181 -279 34 -41 82 -105 108 -141 26 -37 78 -95 115 -130
l68 -63 -85 59 c-125 86 -237 183 -330 283 -88 97 -205 250 -215 283 -14 43
99 128 172 129 31 0 32 -1 69 -112z m-282 -4 c9 -4 43 -45 75 -93 32 -47 73
-104 90 -126 94 -118 289 -292 430 -385 44 -30 79 -55 78 -57 -6 -5 -113 39
-212 87 -260 127 -506 340 -651 564 l-18 29 95 -6 c52 -3 103 -9 113 -13z
m-121 -126 c68 -91 193 -209 333 -314 120 -91 317 -191 507 -258 75 -27 135
-51 133 -53 -8 -8 -220 36 -292 61 -161 55 -314 140 -472 264 -54 41 -91 68
-84 59 25 -30 146 -124 232 -181 47 -31 81 -56 77 -56 -5 0 -53 23 -107 51
-162 83 -284 181 -366 295 -78 108 -102 192 -72 247 11 21 11 21 32 -7 12 -16
47 -65 79 -108z m3375 -83 c80 -19 124 -42 190 -99 37 -31 73 -52 118 -66 97
-30 101 -35 21 -35 -40 0 -102 -4 -140 -9 l-67 -9 -126 64 -126 64 -102 0
c-62 0 -110 -5 -123 -13 -42 -24 -23 3 25 35 68 45 86 53 155 68 81 18 100 18
175 0z m-141 -130 c27 -8 94 -38 147 -66 l98 -52 87 8 c222 20 317 -7 309 -88
-3 -36 0 -36 -93 -4 -38 14 -86 28 -105 31 -19 3 -3 -5 35 -18 94 -31 145 -53
145 -63 0 -16 -58 -43 -92 -43 -18 0 -78 13 -133 29 -153 44 -237 55 -393 48
-147 -6 -282 -35 -427 -91 -95 -37 -71 -18 59 49 131 66 274 113 376 124 72 8
73 8 20 10 -61 1 -191 -27 -260 -57 -71 -30 -141 -63 -185 -85 -34 -17 -38
-17 -25 -3 20 25 122 97 236 166 54 33 94 60 88 60 -9 0 -182 -98 -238 -135
-29 -19 -29 -19 -18 0 27 49 89 130 114 148 58 43 170 57 255 32z"/>
<path d="M18501 6810 c-22 -159 -26 -690 -7 -936 16 -202 44 -419 53 -410 2 2
-5 95 -16 207 -44 443 -51 797 -21 1091 15 139 9 171 -9 48z"/>
<path d="M18052 6820 c0 -14 2 -19 5 -12 2 6 2 18 0 25 -3 6 -5 1 -5 -13z"/>
<path d="M17533 6435 c0 -27 2 -38 4 -22 2 15 2 37 0 50 -2 12 -4 0 -4 -28z"/>
<path d="M24170 5868 c-53 -27 -85 -71 -98 -136 -8 -38 -20 -55 -62 -92 l-51
-45 -132 -1 c-174 -1 -252 -22 -418 -116 -78 -44 -96 -50 -178 -58 -124 -13
-172 -25 -257 -64 -151 -70 -236 -191 -259 -372 -8 -60 8 -156 35 -220 l20
-45 -33 -26 c-17 -15 -64 -58 -102 -97 -56 -56 -81 -91 -117 -166 -25 -52 -51
-114 -58 -136 l-12 -42 -88 -4 c-99 -5 -173 -34 -227 -90 -40 -41 -126 -184
-149 -246 -45 -125 -60 -149 -122 -190 -32 -23 -71 -55 -86 -72 -67 -80 -74
-245 -16 -360 103 -206 266 -345 472 -404 92 -26 278 -56 353 -56 52 0 64 -13
39 -42 -29 -31 -64 -46 -186 -77 -137 -36 -174 -51 -259 -106 -86 -56 -114
-100 -113 -180 0 -106 66 -192 167 -216 107 -25 346 2 782 91 476 96 661 118
1048 125 379 7 487 13 575 30 105 21 224 81 303 153 98 89 133 107 205 106 95
-1 195 -54 389 -207 339 -267 697 -586 1030 -921 380 -381 444 -461 845 -1061
366 -548 349 -525 378 -525 l24 0 -19 28 c-10 16 -44 66 -76 113 -32 46 -158
235 -280 419 -347 523 -483 695 -812 1025 -329 331 -614 589 -937 850 -280
226 -410 361 -464 480 -25 54 -25 59 -14 122 34 177 -32 373 -228 676 -45 68
-130 210 -190 314 -179 313 -206 417 -292 1123 -58 474 -83 586 -150 671 -31
38 -83 69 -117 69 -10 0 -39 -10 -63 -22z m135 -60 c56 -57 87 -153 119 -373
31 -214 78 -606 73 -611 -6 -6 -91 253 -123 371 -15 55 -42 172 -60 260 -19
88 -31 135 -28 105 18 -174 107 -529 184 -735 37 -100 115 -406 108 -426 -3
-9 -111 168 -186 306 -114 210 -211 465 -251 660 -58 289 -50 416 32 465 51
32 84 26 132 -22z m-211 -250 c7 -87 44 -272 75 -378 58 -199 149 -392 316
-675 65 -110 140 -247 165 -305 62 -139 115 -231 259 -449 127 -193 186 -300
227 -408 34 -90 56 -205 48 -254 -7 -41 -21 -60 -28 -37 -2 7 -14 49 -26 93
-45 164 -132 316 -368 644 -295 409 -503 704 -560 797 -31 49 -95 166 -144
259 -94 180 -109 189 -28 18 89 -189 223 -402 443 -708 437 -605 490 -682 553
-807 41 -81 94 -221 94 -248 0 -6 -27 20 -59 57 -70 81 -125 134 -286 275
-240 210 -296 288 -476 648 -53 107 -132 247 -175 310 -42 63 -100 149 -128
190 -106 158 -164 339 -173 541 -7 144 6 236 41 294 26 43 26 44 56 -50 54
-167 187 -475 205 -475 2 0 -16 43 -40 95 -54 115 -137 336 -161 428 l-18 67
79 80 c44 44 85 80 91 80 7 0 14 -32 18 -82z m-184 -12 c0 -7 -8 -20 -17 -27
-28 -24 -103 -146 -147 -242 l-43 -92 -37 75 c-56 112 -74 120 -21 9 48 -103
51 -117 34 -183 l-11 -44 -61 32 c-52 27 -71 31 -136 31 -66 0 -86 -4 -143
-33 -80 -39 -128 -84 -190 -178 -45 -68 -48 -71 -103 -83 l-57 -13 -44 43
c-50 49 -61 42 -12 -8 17 -18 30 -34 27 -35 -5 -4 -130 -47 -144 -51 -16 -4
-54 124 -55 183 0 101 41 220 100 289 36 42 34 43 131 -85 64 -84 89 -113 89
-101 0 2 -38 55 -86 118 l-85 114 22 17 c31 26 41 23 71 -25 15 -24 37 -52 49
-63 14 -12 7 5 -20 47 -22 36 -41 68 -41 71 0 6 64 33 110 47 19 6 82 15 138
21 99 10 108 12 200 65 85 49 206 95 282 108 14 2 64 5 113 6 68 1 87 -2 87
-13z m-90 -650 c40 -160 101 -282 239 -476 83 -116 152 -234 211 -360 78 -168
149 -290 224 -388 31 -40 53 -72 50 -72 -3 0 -58 39 -122 87 -205 153 -356
312 -474 500 -151 239 -217 439 -225 678 -5 150 2 215 39 330 l23 70 6 -140
c4 -93 14 -170 29 -229z m-250 153 c24 -11 58 -31 76 -44 l31 -24 6 -123 c4
-68 9 -139 13 -158 7 -34 5 -33 -87 55 -99 95 -215 195 -227 195 -4 0 36 -39
88 -87 52 -47 128 -120 167 -161 65 -65 75 -82 95 -145 31 -102 70 -195 123
-288 25 -45 45 -83 45 -86 0 -3 -37 30 -82 73 -133 125 -329 287 -510 422 -92
69 -168 130 -168 137 0 16 50 93 90 138 88 101 237 143 340 96z m-317 -351
c365 -276 629 -515 822 -747 98 -117 228 -229 455 -391 107 -77 216 -159 241
-182 25 -24 38 -38 30 -32 -32 22 -181 104 -341 189 -193 103 -288 160 -425
258 -79 56 -265 206 -295 237 -3 3 -32 30 -65 60 -47 43 -42 36 20 -29 194
-202 441 -379 770 -551 367 -192 528 -307 616 -439 16 -24 29 -48 29 -53 0
-14 -33 -9 -144 22 -215 61 -523 200 -741 334 -230 143 -622 437 -852 640
-150 132 -194 167 -143 112 133 -143 616 -527 890 -708 284 -186 612 -338 872
-402 70 -17 128 -34 128 -37 0 -4 -14 -12 -32 -20 -54 -22 -256 -15 -368 14
-167 43 -369 132 -596 263 -124 71 -122 70 -104 52 25 -26 218 -136 346 -198
140 -68 290 -122 398 -145 81 -16 233 -21 311 -10 l47 8 -17 -26 c-11 -17 -39
-34 -83 -49 -59 -20 -86 -23 -227 -23 -175 0 -275 17 -465 77 -396 126 -877
391 -1275 701 -269 210 -585 503 -585 542 0 42 81 269 104 292 2 2 95 -88 207
-200 112 -111 251 -239 309 -284 113 -87 298 -213 313 -213 5 0 -28 25 -74 57
-202 136 -435 336 -606 521 -60 64 -114 124 -121 133 -10 13 -4 24 32 67 l44
52 65 -83 c61 -76 177 -199 177 -185 0 3 -49 63 -110 134 -60 71 -110 134
-110 141 0 19 155 131 198 142 20 6 70 17 111 26 41 9 77 18 80 20 15 16 55
-5 164 -87z m-823 -601 c0 -79 6 -132 19 -180 17 -62 17 -68 2 -62 -54 22
-172 56 -181 53 -6 -2 38 -21 97 -43 104 -39 108 -42 144 -95 91 -132 246
-241 461 -322 119 -45 139 -57 193 -107 33 -32 88 -77 123 -102 l63 -44 -73
-12 c-105 -17 -143 -16 -224 7 -84 24 -299 107 -374 145 -29 15 -54 24 -56 22
-14 -13 364 -172 456 -192 l35 -8 -50 -23 c-27 -13 -63 -23 -78 -23 -52 -2
-402 105 -558 169 -40 17 -74 29 -76 27 -12 -13 242 -108 457 -172 69 -20 129
-40 134 -42 4 -3 -14 -19 -40 -36 -27 -16 -65 -43 -85 -58 -30 -24 -47 -29
-92 -29 -125 0 -398 63 -617 143 -104 38 -220 93 -233 111 -11 16 0 91 19 129
10 17 61 75 114 127 86 84 98 101 109 147 8 33 10 78 6 125 -16 168 -1 260 60
363 39 68 89 93 188 94 l57 1 0 -113z m335 -259 c430 -392 1034 -759 1515
-919 229 -76 325 -93 524 -94 l168 0 -58 -19 c-88 -28 -354 -34 -496 -12 -122
19 -296 62 -411 101 -276 94 -626 300 -838 493 -44 40 -74 56 -159 87 -58 21
-127 49 -155 62 -200 100 -344 257 -375 410 -13 64 -20 160 -12 168 3 3 60
-48 127 -113 66 -65 143 -139 170 -164z m-666 180 c-5 -18 -8 -112 -7 -208 1
-128 -2 -182 -12 -200 -7 -14 -52 -65 -100 -115 -101 -105 -121 -138 -129
-220 l-6 -60 -37 65 c-45 81 -62 157 -49 225 18 96 46 141 104 172 62 32 105
83 133 156 24 65 101 217 109 217 2 0 -1 -15 -6 -32z m18 -924 c147 -58 352
-110 514 -131 l129 -17 -45 -46 c-51 -52 -31 -50 -239 -24 -66 8 -149 22 -185
31 -148 35 -337 150 -390 237 -33 54 -25 58 41 25 34 -17 112 -51 175 -75z
m1359 18 c251 -161 525 -274 804 -331 177 -37 266 -44 425 -36 244 13 269 12
273 -7 2 -11 -13 -24 -50 -41 -298 -139 -1006 -45 -1538 205 -132 62 -119 46
18 -22 294 -146 686 -245 1052 -266 168 -9 357 15 475 61 14 6 10 -3 -15 -30
-81 -88 -200 -110 -595 -110 -274 0 -298 2 -440 28 -82 15 -215 44 -295 63
-146 36 -677 207 -694 224 -14 14 57 112 126 174 59 54 151 106 187 106 10 0
64 -26 118 -57 151 -88 487 -242 500 -230 1 2 -32 19 -75 37 -103 45 -329 157
-426 213 -87 50 -85 54 25 56 60 1 71 -2 125 -37z m-525 -109 c-28 -32 -70
-89 -94 -128 -58 -97 -121 -157 -190 -183 -50 -19 -273 -49 -283 -39 -2 2 38
14 88 26 126 31 150 44 199 107 80 104 275 269 322 273 5 1 -14 -25 -42 -56z
m99 -228 c195 -70 449 -148 605 -185 66 -16 129 -31 140 -34 19 -5 -94 -1
-265 9 -41 2 -127 7 -190 10 -133 6 -269 13 -390 20 -47 2 -139 7 -205 11
l-120 6 47 23 c88 43 125 75 175 152 16 24 33 43 38 43 6 0 80 -25 165 -55z
m-80 -195 c212 -11 553 -31 970 -56 242 -15 616 -15 700 0 14 2 48 7 75 10
l50 5 -35 -15 c-105 -47 -370 -62 -1165 -63 -242 0 -485 -5 -540 -10 -363 -36
-525 -55 -615 -72 -102 -19 -185 -41 -195 -51 -7 -7 -2 -9 15 -4 110 28 383
70 593 91 246 25 696 43 719 29 6 -4 -76 -22 -183 -40 -107 -18 -261 -47 -344
-64 -496 -102 -704 -123 -800 -81 -53 23 -81 50 -101 98 -31 72 -12 130 61
182 81 58 103 62 365 56 129 -3 323 -9 430 -15z"/>
<path d="M23790 3510 c88 -70 223 -154 425 -265 81 -44 215 -104 215 -96 0 4
-17 15 -37 25 -124 58 -365 192 -480 268 -127 83 -178 112 -123 68z"/>
<path d="M2557 5325 c-237 -40 -453 -157 -589 -319 -64 -77 -138 -219 -163
-316 -23 -84 -31 -334 -16 -427 17 -97 72 -256 127 -364 124 -248 311 -456
558 -621 l69 -47 -34 -21 c-63 -38 -313 -157 -439 -208 -422 -170 -916 -297
-1385 -357 -175 -22 -540 -55 -612 -55 -54 0 -63 -3 -63 -18 0 -21 16 -21 325
4 775 62 1480 246 2063 540 l184 92 111 -54 c339 -162 662 -231 1130 -241 499
-10 860 33 1942 233 977 181 1482 244 1956 244 674 0 1129 -127 1611 -449 135
-91 316 -226 413 -309 634 -542 958 -771 1410 -995 392 -195 726 -311 1151
-402 602 -128 1221 -101 1659 74 395 157 660 477 719 866 22 141 28 252 15
261 -19 11 -26 -14 -33 -114 -19 -260 -90 -453 -232 -631 -227 -283 -601 -446
-1134 -492 -166 -15 -518 -6 -685 16 -561 75 -1158 280 -1685 579 -225 128
-393 242 -679 461 -14 11 -163 134 -331 273 -168 140 -361 295 -430 345 -422
307 -738 441 -1225 518 -165 26 -671 37 -913 20 -425 -30 -777 -81 -1592 -231
-988 -182 -1307 -225 -1745 -237 -417 -11 -756 35 -1069 144 -112 39 -316 132
-316 144 0 4 46 38 103 75 437 286 735 640 842 999 39 131 46 317 16 435 -72
285 -281 487 -588 566 -119 31 -323 40 -446 19z m390 -40 c296 -62 514 -245
600 -500 24 -72 27 -95 27 -220 0 -145 -9 -198 -56 -330 -84 -235 -300 -512
-571 -733 -100 -82 -319 -230 -352 -238 -30 -7 -81 22 -199 111 -287 218 -502
546 -568 865 -26 127 -21 338 12 449 70 243 239 429 490 538 175 76 423 100
617 58z"/>
</g>
</svg>
